<?xml version="1.0" encoding="utf-8"?>
<!-- Generator: Adobe Illustrator 21.1.0, SVG Export Plug-In . SVG Version: 6.00 Build 0)  -->
<svg version="1.1" id="Layer_1" xmlns="http://www.w3.org/2000/svg" xmlns:xlink="http://www.w3.org/1999/xlink" x="0px" y="0px"
	 viewBox="0 0 219 222" style="enable-background:new 0 0 219 222;" xml:space="preserve">
<style type="text/css">
	.st0{fill:url(#SVGID_1_);}
	.st1{fill:url(#SVGID_2_);}
	.st2{fill:url(#SVGID_3_);}
	.st3{fill:url(#SVGID_4_);}
	.st4{fill:url(#SVGID_5_);}
	.st5{fill:url(#SVGID_6_);}
	.st6{fill:url(#SVGID_7_);}
	.st7{fill:url(#SVGID_8_);}
	.st8{fill:url(#SVGID_9_);}
	.st9{fill:url(#SVGID_10_);}
	.st10{fill:#FFFFFF;}
</style>
<linearGradient id="SVGID_1_" gradientUnits="userSpaceOnUse" x1="101.5274" y1="70.2039" x2="190.8271" y2="70.2039">
	<stop  offset="0" style="stop-color:#C72B11"/>
	<stop  offset="0" style="stop-color:#6B170D"/>
	<stop  offset="3.652268e-02" style="stop-color:#802A14"/>
	<stop  offset="0.1075" style="stop-color:#A14921"/>
	<stop  offset="0.1864" style="stop-color:#BE652B"/>
	<stop  offset="0.2737" style="stop-color:#D67A33"/>
	<stop  offset="0.3732" style="stop-color:#E88B3A"/>
	<stop  offset="0.4918" style="stop-color:#F5973F"/>
	<stop  offset="0.6486" style="stop-color:#FC9E41"/>
	<stop  offset="0.995" style="stop-color:#FEA042"/>
</linearGradient>
<path class="st0" d="M152.4,34.7c-15.2-1.1-30.3-4.8-43.2,5.1c-0.3,0.2-0.5,0.4-0.8,0.6c-16,15.3,0.6,60,3.2,66.5
	c0.2,0.3,0.4,0.4,0.4,0.4s74-61.7,76.7-64.3c2.7-2.6,3.3-5.4-1-5.7C178.5,36.6,163,35.4,152.4,34.7z"/>
<linearGradient id="SVGID_2_" gradientUnits="userSpaceOnUse" x1="185.7358" y1="543.6068" x2="185.7358" y2="596.8134" gradientTransform="matrix(0.8492 0.5281 0.5281 -0.8492 -315.3838 481.0211)">
	<stop  offset="0" style="stop-color:#FEA042"/>
	<stop  offset="0.3176" style="stop-color:#FEA144"/>
	<stop  offset="0.432" style="stop-color:#FEA44B"/>
	<stop  offset="0.5136" style="stop-color:#FEAA56"/>
	<stop  offset="0.5795" style="stop-color:#FEB367"/>
	<stop  offset="0.636" style="stop-color:#FEBE7D"/>
	<stop  offset="0.6861" style="stop-color:#FECC99"/>
	<stop  offset="0.7313" style="stop-color:#FFDCB9"/>
	<stop  offset="0.7715" style="stop-color:#FFEEDD"/>
	<stop  offset="0.8025" style="stop-color:#FFFFFF"/>
	<stop  offset="0.809" style="stop-color:#FFFBF6"/>
	<stop  offset="0.8585" style="stop-color:#FFDBB7"/>
	<stop  offset="0.9036" style="stop-color:#FEC184"/>
	<stop  offset="0.9429" style="stop-color:#FEAF60"/>
	<stop  offset="0.9746" style="stop-color:#FEA44A"/>
	<stop  offset="0.995" style="stop-color:#FEA042"/>
</linearGradient>
<path class="st1" d="M174.5,83.1c-11.3-7.7-22.2-13.6-27-16.5c-4.4-2.6-9.1-1.6-11,1.4c-1.7,2.8-21.5,34.6-24.2,38.9
	C117.7,102.4,154.9,72.7,174.5,83.1z"/>
<linearGradient id="SVGID_3_" gradientUnits="userSpaceOnUse" x1="165.6922" y1="569.7499" x2="270.1915" y2="569.7499" gradientTransform="matrix(0.8492 0.5281 0.5281 -0.8492 -315.3838 481.0211)">
	<stop  offset="0" style="stop-color:#C72B11"/>
	<stop  offset="0" style="stop-color:#6B170D"/>
	<stop  offset="3.652268e-02" style="stop-color:#802A14"/>
	<stop  offset="0.1075" style="stop-color:#A14921"/>
	<stop  offset="0.1864" style="stop-color:#BE652B"/>
	<stop  offset="0.2737" style="stop-color:#D67A33"/>
	<stop  offset="0.3732" style="stop-color:#E88B3A"/>
	<stop  offset="0.4918" style="stop-color:#F5973F"/>
	<stop  offset="0.6486" style="stop-color:#FC9E41"/>
	<stop  offset="0.995" style="stop-color:#FEA042"/>
</linearGradient>
<path class="st2" d="M193.6,123.2c-3.7-14.8-4.9-30.3-18.3-39.5c-0.3-0.2-0.6-0.4-0.8-0.6c-19.6-10.5-56.8,19.3-62.1,23.8
	c-0.2,0.3-0.3,0.5-0.3,0.5s81.7,51.1,85,52.9c3.3,1.8,6.2,1.5,5.1-2.8C200,148.7,196.2,133.5,193.6,123.2z"/>
<linearGradient id="SVGID_4_" gradientUnits="userSpaceOnUse" x1="-249.2548" y1="1026.0217" x2="-249.2548" y2="1079.2283" gradientTransform="matrix(-0.1802 0.9836 0.9836 0.1802 -944.9475 187.2076)">
	<stop  offset="0" style="stop-color:#FEA042"/>
	<stop  offset="0.3176" style="stop-color:#FEA144"/>
	<stop  offset="0.432" style="stop-color:#FEA44B"/>
	<stop  offset="0.5136" style="stop-color:#FEAA56"/>
	<stop  offset="0.5795" style="stop-color:#FEB367"/>
	<stop  offset="0.636" style="stop-color:#FEBE7D"/>
	<stop  offset="0.6861" style="stop-color:#FECC99"/>
	<stop  offset="0.7313" style="stop-color:#FFDCB9"/>
	<stop  offset="0.7715" style="stop-color:#FFEEDD"/>
	<stop  offset="0.8025" style="stop-color:#FFFFFF"/>
	<stop  offset="0.809" style="stop-color:#FFFBF6"/>
	<stop  offset="0.8585" style="stop-color:#FFDBB7"/>
	<stop  offset="0.9036" style="stop-color:#FEC184"/>
	<stop  offset="0.9429" style="stop-color:#FEAF60"/>
	<stop  offset="0.9746" style="stop-color:#FEA44A"/>
	<stop  offset="0.995" style="stop-color:#FEA042"/>
</linearGradient>
<path class="st3" d="M157.7,156.3c3-13.3,4.5-25.6,5.5-31.2c0.9-5-1.9-9.1-5.3-9.7c-3.2-0.6-40.1-7.4-45-8.2
	C118.9,110.5,160.2,134.2,157.7,156.3z"/>
<linearGradient id="SVGID_5_" gradientUnits="userSpaceOnUse" x1="-269.3215" y1="1052.1489" x2="-164.823" y2="1052.1489" gradientTransform="matrix(-0.1802 0.9836 0.9836 0.1802 -944.9475 187.2076)">
	<stop  offset="0" style="stop-color:#C72B11"/>
	<stop  offset="0" style="stop-color:#6B170D"/>
	<stop  offset="3.652268e-02" style="stop-color:#802A14"/>
	<stop  offset="0.1075" style="stop-color:#A14921"/>
	<stop  offset="0.1864" style="stop-color:#BE652B"/>
	<stop  offset="0.2737" style="stop-color:#D67A33"/>
	<stop  offset="0.3732" style="stop-color:#E88B3A"/>
	<stop  offset="0.4918" style="stop-color:#F5973F"/>
	<stop  offset="0.6486" style="stop-color:#FC9E41"/>
	<stop  offset="0.995" style="stop-color:#FEA042"/>
</linearGradient>
<path class="st4" d="M127.4,188.8c12.4-8.9,26.4-15.6,30-31.5c0.1-0.3,0.1-0.7,0.2-1c2.6-22.1-38.8-45.7-44.9-49.1
	c-0.3-0.1-0.5-0.1-0.5-0.1s-17.6,94.7-18,98.5c-0.4,3.7,0.9,6.3,4.4,3.7C106,204,118.8,195,127.4,188.8z"/>
<linearGradient id="SVGID_6_" gradientUnits="userSpaceOnUse" x1="-978.0353" y1="852.933" x2="-978.0353" y2="906.1395" gradientTransform="matrix(-0.9858 0.1681 0.1681 0.9858 -1014.9797 -565.9525)">
	<stop  offset="0" style="stop-color:#FEA042"/>
	<stop  offset="0.3176" style="stop-color:#FEA144"/>
	<stop  offset="0.432" style="stop-color:#FEA44B"/>
	<stop  offset="0.5136" style="stop-color:#FEAA56"/>
	<stop  offset="0.5795" style="stop-color:#FEB367"/>
	<stop  offset="0.636" style="stop-color:#FEBE7D"/>
	<stop  offset="0.6861" style="stop-color:#FECC99"/>
	<stop  offset="0.7313" style="stop-color:#FFDCB9"/>
	<stop  offset="0.7715" style="stop-color:#FFEEDD"/>
	<stop  offset="0.8025" style="stop-color:#FFFFFF"/>
	<stop  offset="0.809" style="stop-color:#FFFBF6"/>
	<stop  offset="0.8585" style="stop-color:#FFDBB7"/>
	<stop  offset="0.9036" style="stop-color:#FEC184"/>
	<stop  offset="0.9429" style="stop-color:#FEAF60"/>
	<stop  offset="0.9746" style="stop-color:#FEA44A"/>
	<stop  offset="0.995" style="stop-color:#FEA042"/>
</linearGradient>
<path class="st5" d="M81.6,166.1c13.5-1.7,25.6-4.5,31.2-5.5c5-0.9,7.9-4.9,7.3-8.3c-0.5-3.2-6.9-40.2-7.7-45.1
	C111.2,114,103.2,160.9,81.6,166.1z"/>
<linearGradient id="SVGID_7_" gradientUnits="userSpaceOnUse" x1="-998.0731" y1="879.1144" x2="-893.5621" y2="879.1144" gradientTransform="matrix(-0.9858 0.1681 0.1681 0.9858 -1014.9797 -565.9525)">
	<stop  offset="0" style="stop-color:#C72B11"/>
	<stop  offset="0" style="stop-color:#6B170D"/>
	<stop  offset="3.652268e-02" style="stop-color:#802A14"/>
	<stop  offset="0.1075" style="stop-color:#A14921"/>
	<stop  offset="0.1864" style="stop-color:#BE652B"/>
	<stop  offset="0.2737" style="stop-color:#D67A33"/>
	<stop  offset="0.3732" style="stop-color:#E88B3A"/>
	<stop  offset="0.4918" style="stop-color:#F5973F"/>
	<stop  offset="0.6486" style="stop-color:#FC9E41"/>
	<stop  offset="0.995" style="stop-color:#FEA042"/>
</linearGradient>
<path class="st6" d="M40.7,148.8c12.6,8.6,23.7,19.4,39.9,17.4c0.3,0,0.7-0.1,1-0.1c21.6-5.2,29.7-52.1,30.7-59
	c-0.1-0.3-0.1-0.5-0.1-0.5s-95,15.9-98.7,16.8s-5.6,3-2,5.5C19,134,31.9,142.8,40.7,148.8z"/>
<linearGradient id="SVGID_8_" gradientUnits="userSpaceOnUse" x1="-999.4578" y1="12.1373" x2="-999.4578" y2="65.2988" gradientTransform="matrix(-0.3892 -0.9257 -0.9354 0.3933 -273.3571 -841.2745)">
	<stop  offset="0" style="stop-color:#FEA042"/>
	<stop  offset="0.3176" style="stop-color:#FEA144"/>
	<stop  offset="0.432" style="stop-color:#FEA44B"/>
	<stop  offset="0.5136" style="stop-color:#FEAA56"/>
	<stop  offset="0.5795" style="stop-color:#FEB367"/>
	<stop  offset="0.636" style="stop-color:#FEBE7D"/>
	<stop  offset="0.6861" style="stop-color:#FECC99"/>
	<stop  offset="0.7313" style="stop-color:#FFDCB9"/>
	<stop  offset="0.7715" style="stop-color:#FFEEDD"/>
	<stop  offset="0.8025" style="stop-color:#FFFFFF"/>
	<stop  offset="0.809" style="stop-color:#FFFBF6"/>
	<stop  offset="0.8585" style="stop-color:#FFDBB7"/>
	<stop  offset="0.9036" style="stop-color:#FEC184"/>
	<stop  offset="0.9429" style="stop-color:#FEAF60"/>
	<stop  offset="0.9746" style="stop-color:#FEA44A"/>
	<stop  offset="0.995" style="stop-color:#FEA042"/>
</linearGradient>
<path class="st7" d="M46.9,90.9c4.8,12.8,10.3,24,12.5,29.2c2,4.7,6.6,6.6,9.9,5.2c3.1-1.3,38.2-16,42.8-18
	C105.1,107.9,56.9,110.9,46.9,90.9z"/>
<linearGradient id="SVGID_9_" gradientUnits="userSpaceOnUse" x1="-1022.5366" y1="33.1516" x2="-918.0823" y2="33.1516" gradientTransform="matrix(-0.3896 -0.921 -0.921 0.3896 -280.5147 -837.133)">
	<stop  offset="0" style="stop-color:#C72B11"/>
	<stop  offset="0" style="stop-color:#6B170D"/>
	<stop  offset="3.652268e-02" style="stop-color:#802A14"/>
	<stop  offset="0.1075" style="stop-color:#A14921"/>
	<stop  offset="0.1864" style="stop-color:#BE652B"/>
	<stop  offset="0.2737" style="stop-color:#D67A33"/>
	<stop  offset="0.3732" style="stop-color:#E88B3A"/>
	<stop  offset="0.4918" style="stop-color:#F5973F"/>
	<stop  offset="0.6486" style="stop-color:#FC9E41"/>
	<stop  offset="0.995" style="stop-color:#FEA042"/>
</linearGradient>
<path class="st8" d="M54.4,47.2C48.9,61.4,40.9,74.7,46.6,90c0.1,0.3,0.2,0.6,0.4,0.9c10,19.8,57.5,16.9,64.5,16.4
	c0.3-0.1,0.5-0.2,0.5-0.2S74.6,18.4,72.9,15s-4.2-4.8-5.8-0.7C63.8,22.8,58.2,37.3,54.4,47.2z"/>
<linearGradient id="SVGID_10_" gradientUnits="userSpaceOnUse" x1="-331.5156" y1="-94.6881" x2="-331.5156" y2="-41.4316" gradientTransform="matrix(0.7666 -0.6422 -0.6422 -0.7666 320.2571 -191.6099)">
	<stop  offset="0" style="stop-color:#FEA042"/>
	<stop  offset="0.3176" style="stop-color:#FEA144"/>
	<stop  offset="0.432" style="stop-color:#FEA44B"/>
	<stop  offset="0.5136" style="stop-color:#FEAA56"/>
	<stop  offset="0.5795" style="stop-color:#FEB367"/>
	<stop  offset="0.636" style="stop-color:#FEBE7D"/>
	<stop  offset="0.6861" style="stop-color:#FECC99"/>
	<stop  offset="0.7313" style="stop-color:#FFDCB9"/>
	<stop  offset="0.7715" style="stop-color:#FFEEDD"/>
	<stop  offset="0.8025" style="stop-color:#FFFFFF"/>
	<stop  offset="0.809" style="stop-color:#FFFBF6"/>
	<stop  offset="0.8585" style="stop-color:#FFDBB7"/>
	<stop  offset="0.9036" style="stop-color:#FEC184"/>
	<stop  offset="0.9429" style="stop-color:#FEAF60"/>
	<stop  offset="0.9746" style="stop-color:#FEA44A"/>
	<stop  offset="0.995" style="stop-color:#FEA042"/>
</linearGradient>
<path class="st9" d="M108.3,40.3c-10.8,8.3-19.9,16.8-24.1,20.5c-3.9,3.3-4.3,8.2-2.1,10.9c2.1,2.5,26.2,31.3,29.4,35.1
	C109,100.3,92.3,55.7,108.3,40.3z"/>
<circle class="st10" cx="111.6" cy="106.9" r="3.6"/>
</svg>
